<svg width="24" height="25" viewBox="0 0 24 25" fill="none" xmlns="http://www.w3.org/2000/svg">
<path d="M17 16.59L21 12.59M21 12.59L17 8.59M21 12.59H7M13 16.59V17.59C13 18.3856 12.6839 19.1487 12.1213 19.7113C11.5587 20.2739 10.7956 20.59 10 20.59H6C5.20435 20.59 4.44129 20.2739 3.87868 19.7113C3.31607 19.1487 3 18.3856 3 17.59V7.59C3 6.79435 3.31607 6.03129 3.87868 5.46868C4.44129 4.90607 5.20435 4.59 6 4.59H10C10.7956 4.59 11.5587 4.90607 12.1213 5.46868C12.6839 6.03129 13 6.79435 13 7.59V8.59" stroke="#7C8DB0" stroke-width="2" stroke-linecap="round" stroke-linejoin="round"/>
</svg>
