<svg width="24" height="24" viewBox="0 0 24 24" fill="none" xmlns="http://www.w3.org/2000/svg">
<path fill-rule="evenodd" clip-rule="evenodd" d="M3.25 3C3.25 2.0335 4.0335 1.25 5 1.25H15.5C15.7126 1.25 15.9152 1.34024 16.0575 1.49828L20.5575 6.49828C20.6814 6.63599 20.75 6.81472 20.75 7V21C20.75 21.9665 19.9665 22.75 19 22.75H5C4.03351 22.75 3.25 21.9665 3.25 21V3ZM5 2.75C4.86193 2.75 4.75 2.86193 4.75 3V21C4.75 21.1381 4.86192 21.25 5 21.25H19C19.1381 21.25 19.25 21.1381 19.25 21V7.2878L15.166 2.75H5Z" fill="#A1B0CC" fill-opacity="0.8"/>
<path fill-rule="evenodd" clip-rule="evenodd" d="M16.4749 10.9195C16.7955 11.1818 16.8428 11.6543 16.5805 11.9749L12.0805 17.4749C11.9538 17.6298 11.7705 17.7276 11.5713 17.7466C11.3721 17.7656 11.1736 17.7043 11.0199 17.5762L8.01988 15.0762C7.70167 14.811 7.65868 14.3381 7.92385 14.0199C8.18903 13.7017 8.66195 13.6587 8.98016 13.9238L11.3988 15.9394L15.4196 11.0251C15.6818 10.7045 16.1544 10.6572 16.4749 10.9195Z" fill="#A1B0CC" fill-opacity="0.8"/>
<path fill-rule="evenodd" clip-rule="evenodd" d="M15 1.25C15.4142 1.25 15.75 1.58579 15.75 2V6.25H20C20.4142 6.25 20.75 6.58579 20.75 7C20.75 7.41421 20.4142 7.75 20 7.75H15C14.5858 7.75 14.25 7.41421 14.25 7V2C14.25 1.58579 14.5858 1.25 15 1.25Z" fill="#A1B0CC" fill-opacity="0.8"/>
</svg>
